<svg enable-background="new 0 0 24 24" viewBox="0 0 24 24" xmlns="http://www.w3.org/2000/svg"><path d="m5.1 16c-.3-.5-.9-.6-1.4-.4-.5.3-.6.9-.4 1.4.3.5.9.6 1.4.4.5-.3.6-.9.4-1.4zm-.4-9.4c-.5-.2-1.1-.1-1.4.4-.2.5-.1 1.1.4 1.4.5.2 1.1.1 1.4-.4.2-.5.1-1.1-.4-1.4zm15.6 1.8c.5-.3.6-.9.4-1.4-.3-.5-.9-.6-1.4-.4-.5.3-.6.9-.4 1.4.3.5.9.6 1.4.4zm-16.3 3.6c0-.6-.4-1-1-1s-1 .4-1 1 .4 1 1 1 1-.4 1-1zm3.2 6.8c-.5.1-.9.7-.7 1.2.1.5.7.9 1.2.7.5-.1.9-.7.7-1.2-.1-.5-.6-.8-1.2-.7zm13.8-7.8c-.6 0-1 .4-1 1s.4 1 1 1 1-.4 1-1-.4-1-1-1zm-.7 4.6c-.5-.3-1.1-.1-1.4.4s-.1 1.1.4 1.4 1.1.1 1.4-.4c.2-.5.1-1.1-.4-1.4zm-3.3-12.3c-.5-.3-1.1-.1-1.4.4s-.1 1.1.4 1.4 1.1.1 1.4-.4c.2-.5.1-1.1-.4-1.4zm-.2 15.5c-.5-.1-1.1.2-1.2.7s.2 1.1.7 1.2 1.1-.2 1.2-.7-.2-1-.7-1.2zm-4.8 1.2c-.6 0-1 .4-1 1s.4 1 1 1 1-.4 1-1-.4-1-1-1zm0-18c-.6 0-1 .4-1 1s.4 1 1 1 1-.4 1-1-.4-1-1-1z"/></svg>